<?xml version="1.0" encoding="UTF-8" standalone="no"?>
<svg
   xmlns:dc="http://purl.org/dc/elements/1.1/"
   xmlns:cc="http://creativecommons.org/ns#"
   xmlns:rdf="http://www.w3.org/1999/02/22-rdf-syntax-ns#"
   xmlns:svg="http://www.w3.org/2000/svg"
   xmlns="http://www.w3.org/2000/svg"
   xmlns:sodipodi="http://sodipodi.sourceforge.net/DTD/sodipodi-0.dtd"
   xmlns:inkscape="http://www.inkscape.org/namespaces/inkscape"
   version="1.1"
   x="0px"
   y="0px"
   viewBox="0 0 100 125"
   style="enable-background:new 0 0 100 100;"
   xml:space="preserve"
   id="svg6015"
   sodipodi:docname="communication.svg"
   inkscape:version="0.92.3 (d244b95, 2018-08-02)"><metadata
     id="metadata6021"><rdf:RDF><cc:Work
         rdf:about=""><dc:format>image/svg+xml</dc:format><dc:type
           rdf:resource="http://purl.org/dc/dcmitype/StillImage" /><dc:title></dc:title></cc:Work></rdf:RDF></metadata><defs
     id="defs6019" /><sodipodi:namedview
     pagecolor="#ffffff"
     bordercolor="#666666"
     borderopacity="1"
     objecttolerance="10"
     gridtolerance="10"
     guidetolerance="10"
     inkscape:pageopacity="0"
     inkscape:pageshadow="2"
     inkscape:window-width="1853"
     inkscape:window-height="1145"
     id="namedview6017"
     showgrid="false"
     inkscape:zoom="7.552"
     inkscape:cx="28.681144"
     inkscape:cy="73.09322"
     inkscape:window-x="1987"
     inkscape:window-y="27"
     inkscape:window-maximized="1"
     inkscape:current-layer="svg6015" /><g
     style=""
     display="none"
     id="g6003"><rect
       x="-979"
       y="-275"
       style=""
       width="1240"
       height="1338"
       display="inline"
       fill="#D89F99"
       stroke="#F93300"
       stroke-miterlimit="3"
       id="rect6001" /></g><g
     id="g6009"
     style="stroke:#ffffff;stroke-opacity:1;fill:#007032;fill-opacity:1"><path
       d="M22.359,16.628v21.882c0,4.207,3.422,7.629,7.628,7.629h1.63v0.577c0,4.206,3.423,7.628,7.629,7.628h1.306l0.136,0.151   l0.128-0.151h12.663c3.096,3.321,6.319,7.143,6.352,7.183l0.622,0.739c0.88-1.377,2.09-2.443,3.498-3.042l4.392-4.88h3.179   c4.206,0,7.629-3.422,7.629-7.628V24.835c0-4.206-3.423-7.628-7.629-7.628h-1.63v-0.578C69.892,12.422,66.47,9,62.264,9H29.987   C25.781,9,22.359,12.422,22.359,16.628z M71.522,19.881c2.731,0,4.954,2.222,4.954,4.954v21.882c0,2.731-2.223,4.954-4.954,4.954   h-4.37l-6.271,6.967c-1.289-1.501-3.635-4.195-5.849-6.547l-0.396-0.421h-15.39c-2.731,0-4.954-2.222-4.954-4.954V24.835   c0-2.731,2.223-4.954,4.954-4.954H71.522z M67.217,16.628v0.578H39.246c-4.206,0-7.629,3.422-7.629,7.628v18.63h-1.63   c-2.731,0-4.953-2.222-4.953-4.954V16.628c0-2.731,2.222-4.954,4.953-4.954h32.277C64.995,11.675,67.217,13.897,67.217,16.628z"
       id="path6005"
       style="stroke:#ffffff;stroke-opacity:1;fill:#007032;fill-opacity:1" /><path
       d="M72.012,60.801c-1.032,0-2.017,0.224-2.934,0.615c-1.581,0.674-2.94,1.871-3.929,3.417   c-1.065,1.665-1.702,3.724-1.702,5.961c0,2.985,1.128,5.656,2.906,7.487c-3.39,1.254-6.017,3.525-7.204,6.307   c-0.94-0.53-1.951-0.988-3.034-1.346c1.862-2.032,3.032-4.915,3.032-8.124c0-6.149-4.273-11.135-9.544-11.135   c-5.271,0-9.544,4.985-9.544,11.135c0,3.326,1.256,6.302,3.238,8.343c-0.947,0.35-1.839,0.771-2.668,1.256   c-1.342-2.709-4.06-4.894-7.51-6.034c1.671-1.824,2.721-4.411,2.721-7.291c0-5.519-3.835-9.993-8.565-9.993   c-4.73,0-8.565,4.474-8.565,9.993c0,2.984,1.128,5.656,2.906,7.487c-4.67,1.728-7.902,5.39-7.902,9.643   c0,0.241,0.026,0.477,0.047,0.714h22.155c-0.905,1.515-1.424,3.194-1.424,4.971c0,0.268,0.03,0.531,0.052,0.795h30.913   c0.023-0.264,0.052-0.527,0.052-0.795c0-2.012-0.654-3.905-1.797-5.567H86.24c0.021-0.237,0.047-0.473,0.047-0.714   c0-4.414-3.474-8.201-8.431-9.839c1.671-1.823,2.721-4.411,2.721-7.291C80.577,65.275,76.742,60.801,72.012,60.801z M72.012,63.805   c3.066,0,5.561,3.135,5.561,6.988s-2.495,6.988-5.561,6.988c-3.066,0-5.561-3.135-5.561-6.988S68.945,63.805,72.012,63.805z    M43.063,75.117c0-4.483,2.934-8.13,6.539-8.13c3.606,0,6.54,3.647,6.54,8.13c0,4.483-2.934,8.13-6.54,8.13   C45.996,83.247,43.063,79.6,43.063,75.117z M27.275,64.402c3.066,0,5.561,3.135,5.561,6.988c0,3.853-2.495,6.988-5.561,6.988   c-3.066,0-5.561-3.135-5.561-6.988C21.714,67.537,24.209,64.402,27.275,64.402z M17.232,86.229c1.161-2.533,4.175-4.54,7.856-5.188   c0.7,0.215,1.43,0.341,2.188,0.341c0.844,0,1.656-0.148,2.426-0.413c3.894,0.553,7.12,2.619,8.331,5.26H17.232z M37.901,91.996   c1.121-3.011,4.46-5.451,8.63-6.344c0.965,0.383,1.995,0.6,3.071,0.6c1.172,0,2.289-0.258,3.326-0.709   c4.421,0.791,8.003,3.312,9.171,6.453H37.901z M82.769,85.633h-20.8c1.161-2.533,4.175-4.54,7.856-5.188   c0.699,0.215,1.43,0.341,2.188,0.341c0.844,0,1.656-0.148,2.426-0.413C78.332,80.926,81.558,82.992,82.769,85.633z"
       id="path6007"
       style="stroke:#ffffff;stroke-opacity:1;fill:#007032;fill-opacity:1" /></g></svg>