<?xml version="1.0" encoding="UTF-8" standalone="no"?>
<svg
   xmlns:dc="http://purl.org/dc/elements/1.1/"
   xmlns:cc="http://creativecommons.org/ns#"
   xmlns:rdf="http://www.w3.org/1999/02/22-rdf-syntax-ns#"
   xmlns:svg="http://www.w3.org/2000/svg"
   xmlns="http://www.w3.org/2000/svg"
   xmlns:sodipodi="http://sodipodi.sourceforge.net/DTD/sodipodi-0.dtd"
   xmlns:inkscape="http://www.inkscape.org/namespaces/inkscape"
   version="1.1"
   x="0px"
   y="0px"
   viewBox="0 0 100 125"
   style="enable-background:new 0 0 100 100;"
   xml:space="preserve"
   id="svg6015"
   sodipodi:docname="communication.svg"
   inkscape:version="0.92.3 (d244b95, 2018-08-02)"><metadata
     id="metadata6021"><rdf:RDF><cc:Work
         rdf:about=""><dc:format>image/svg+xml</dc:format><dc:type
           rdf:resource="http://purl.org/dc/dcmitype/StillImage" /><dc:title></dc:title></cc:Work></rdf:RDF></metadata><defs
     id="defs6019" /><sodipodi:namedview
     pagecolor="#ffffff"
     bordercolor="#666666"
     borderopacity="1"
     objecttolerance="10"
     gridtolerance="10"
     guidetolerance="10"
     inkscape:pageopacity="0"
     inkscape:pageshadow="2"
     inkscape:window-width="1853"
     inkscape:window-height="1145"
     id="namedview6017"
     showgrid="false"
     inkscape:zoom="7.552"
     inkscape:cx="28.681144"
     inkscape:cy="73.09322"
     inkscape:window-x="1987"
     inkscape:window-y="27"
     inkscape:window-maximized="1"
     inkscape:current-layer="svg6015" /><g
     style=""
     display="none"
     id="g6003"><rect
       x="-979"
       y="-275"
       style=""
       width="1240"
       height="1338"
       display="inline"
       fill="#D89F99"
       stroke="#F93300"
       stroke-miterlimit="3"
       id="rect6001" /></g><g
     id="g6009"
     style="fill:#12b542;fill-opacity:1;stroke:#ffffff;stroke-opacity:1"
     transform="matrix(0.67390587,0,0,0.57826591,11.529433,2.7487175)"><path
       d="M 22.359,16.628 V 38.51 c 0,4.207 3.422,7.629 7.628,7.629 h 1.63 v 0.577 c 0,4.206 3.423,7.628 7.629,7.628 h 1.306 l 0.136,0.151 0.128,-0.151 h 12.663 c 3.096,3.321 6.319,7.143 6.352,7.183 l 0.622,0.739 c 0.88,-1.377 2.09,-2.443 3.498,-3.042 l 4.392,-4.88 h 3.179 c 4.206,0 7.629,-3.422 7.629,-7.628 V 24.835 c 0,-4.206 -3.423,-7.628 -7.629,-7.628 h -1.63 V 16.629 C 69.892,12.422 66.47,9 62.264,9 H 29.987 c -4.206,0 -7.628,3.422 -7.628,7.628 z m 49.163,3.253 c 2.731,0 4.954,2.222 4.954,4.954 v 21.882 c 0,2.731 -2.223,4.954 -4.954,4.954 h -4.37 l -6.271,6.967 C 59.592,57.137 57.246,54.443 55.032,52.091 L 54.636,51.67 h -15.39 c -2.731,0 -4.954,-2.222 -4.954,-4.954 V 24.835 c 0,-2.731 2.223,-4.954 4.954,-4.954 z m -4.305,-3.253 v 0.578 H 39.246 c -4.206,0 -7.629,3.422 -7.629,7.628 v 18.63 h -1.63 c -2.731,0 -4.953,-2.222 -4.953,-4.954 V 16.628 c 0,-2.731 2.222,-4.954 4.953,-4.954 h 32.277 c 2.731,0.001 4.953,2.223 4.953,4.954 z"
       id="path6005"
       style="fill:#12b542;fill-opacity:1;stroke:#ffffff;stroke-opacity:1"
       inkscape:connector-curvature="0" /><path
       d="m 72.012,60.801 c -1.032,0 -2.017,0.224 -2.934,0.615 -1.581,0.674 -2.94,1.871 -3.929,3.417 -1.065,1.665 -1.702,3.724 -1.702,5.961 0,2.985 1.128,5.656 2.906,7.487 -3.39,1.254 -6.017,3.525 -7.204,6.307 -0.94,-0.53 -1.951,-0.988 -3.034,-1.346 1.862,-2.032 3.032,-4.915 3.032,-8.124 0,-6.149 -4.273,-11.135 -9.544,-11.135 -5.271,0 -9.544,4.985 -9.544,11.135 0,3.326 1.256,6.302 3.238,8.343 -0.947,0.35 -1.839,0.771 -2.668,1.256 -1.342,-2.709 -4.06,-4.894 -7.51,-6.034 1.671,-1.824 2.721,-4.411 2.721,-7.291 0,-5.519 -3.835,-9.993 -8.565,-9.993 -4.73,0 -8.565,4.474 -8.565,9.993 0,2.984 1.128,5.656 2.906,7.487 -4.67,1.728 -7.902,5.39 -7.902,9.643 0,0.241 0.026,0.477 0.047,0.714 h 22.155 c -0.905,1.515 -1.424,3.194 -1.424,4.971 0,0.268 0.03,0.531 0.052,0.795 h 30.913 c 0.023,-0.264 0.052,-0.527 0.052,-0.795 0,-2.012 -0.654,-3.905 -1.797,-5.567 H 86.24 c 0.021,-0.237 0.047,-0.473 0.047,-0.714 0,-4.414 -3.474,-8.201 -8.431,-9.839 1.671,-1.823 2.721,-4.411 2.721,-7.291 0,-5.521 -3.835,-9.995 -8.565,-9.995 z m 0,3.004 c 3.066,0 5.561,3.135 5.561,6.988 0,3.853 -2.495,6.988 -5.561,6.988 -3.066,0 -5.561,-3.135 -5.561,-6.988 0,-3.853 2.494,-6.988 5.561,-6.988 z M 43.063,75.117 c 0,-4.483 2.934,-8.13 6.539,-8.13 3.606,0 6.54,3.647 6.54,8.13 0,4.483 -2.934,8.13 -6.54,8.13 -3.606,0 -6.539,-3.647 -6.539,-8.13 z M 27.275,64.402 c 3.066,0 5.561,3.135 5.561,6.988 0,3.853 -2.495,6.988 -5.561,6.988 -3.066,0 -5.561,-3.135 -5.561,-6.988 0,-3.853 2.495,-6.988 5.561,-6.988 z M 17.232,86.229 c 1.161,-2.533 4.175,-4.54 7.856,-5.188 0.7,0.215 1.43,0.341 2.188,0.341 0.844,0 1.656,-0.148 2.426,-0.413 3.894,0.553 7.12,2.619 8.331,5.26 z m 20.669,5.767 c 1.121,-3.011 4.46,-5.451 8.63,-6.344 0.965,0.383 1.995,0.6 3.071,0.6 1.172,0 2.289,-0.258 3.326,-0.709 4.421,0.791 8.003,3.312 9.171,6.453 z m 44.868,-6.363 h -20.8 c 1.161,-2.533 4.175,-4.54 7.856,-5.188 0.699,0.215 1.43,0.341 2.188,0.341 0.844,0 1.656,-0.148 2.426,-0.413 3.893,0.553 7.119,2.619 8.33,5.26 z"
       id="path6007"
       style="fill:#12b542;fill-opacity:1;stroke:#ffffff;stroke-opacity:1"
       inkscape:connector-curvature="0" /></g></svg>