<?xml version="1.0" encoding="UTF-8" standalone="no"?>
<svg
   xmlns:dc="http://purl.org/dc/elements/1.1/"
   xmlns:cc="http://creativecommons.org/ns#"
   xmlns:rdf="http://www.w3.org/1999/02/22-rdf-syntax-ns#"
   xmlns:svg="http://www.w3.org/2000/svg"
   xmlns="http://www.w3.org/2000/svg"
   xmlns:sodipodi="http://sodipodi.sourceforge.net/DTD/sodipodi-0.dtd"
   xmlns:inkscape="http://www.inkscape.org/namespaces/inkscape"
   version="1.1"
   x="0px"
   y="0px"
   viewBox="0 0 210.1989 211.07118"
   enable-background="new 0 0 100 100"
   xml:space="preserve"
   id="svg3775"
   sodipodi:docname="gameon2.svg"
   inkscape:version="0.92.3 (2405546, 2018-03-11)"
   width="210.1989"
   height="211.07118"><metadata
     id="metadata3781"><rdf:RDF><cc:Work
         rdf:about=""><dc:format>image/svg+xml</dc:format><dc:type
           rdf:resource="http://purl.org/dc/dcmitype/StillImage" /><dc:title></dc:title></cc:Work></rdf:RDF></metadata><defs
     id="defs3779"><filter
       inkscape:collect="always"
       style="color-interpolation-filters:sRGB"
       id="filter3795"><feBlend
         inkscape:collect="always"
         mode="lighten"
         in2="BackgroundImage"
         id="feBlend3797" /></filter><filter
       inkscape:collect="always"
       style="color-interpolation-filters:sRGB"
       id="filter4616"
       x="-0.60032874"
       width="2.2006576"
       y="-0.59489596"
       height="2.1897919"><feGaussianBlur
         inkscape:collect="always"
         stdDeviation="23.892185"
         id="feGaussianBlur4618" /></filter></defs><sodipodi:namedview
     pagecolor="#ffffff"
     bordercolor="#666666"
     borderopacity="1"
     objecttolerance="10"
     gridtolerance="10"
     guidetolerance="10"
     inkscape:pageopacity="0"
     inkscape:pageshadow="2"
     inkscape:window-width="3066"
     inkscape:window-height="1689"
     id="namedview3777"
     showgrid="false"
     inkscape:zoom="11.464"
     inkscape:cx="79.151586"
     inkscape:cy="101.17411"
     inkscape:window-x="134"
     inkscape:window-y="55"
     inkscape:window-maximized="1"
     inkscape:current-layer="svg3775" /><rect
     id="rect3783"
     width="95.516403"
     height="96.388695"
     x="57.341244"
     y="57.341244"
     style="opacity:0.7;fill:#861e1e;fill-opacity:0.92307691;stroke-width:0.85806727;filter:url(#filter4616)" /><g
     id="g3793"
     transform="translate(30.212841,49.228893)"><g
       transform="matrix(0.90642669,0,0,0.90459393,24.915985,7.9978489)"
       id="g3769"><g
         id="g3788"><path
           d="M 85.361,44.263 H 79.603 V 30.352 c 0,-5.497 -4.457,-9.954 -9.954,-9.954 H 52.223 v -5.76 C 52.223,7.91 46.77,2.457 40.042,2.457 h -0.508 c -6.728,0 -12.181,5.453 -12.181,12.181 v 5.76 H 12.412 c -5.497,0 -9.954,4.457 -9.954,9.954 v 13.911 h 5.758 c 6.727,0 12.181,5.453 12.181,12.18 v 0.508 c 0,6.728 -5.454,12.181 -12.181,12.181 H 2.458 V 87.59 c 0,5.497 4.457,9.954 9.954,9.954 H 27.353 V 92.51 c 0,-6.727 5.453,-12.18 12.181,-12.18 h 0.508 c 6.728,0 12.181,5.453 12.181,12.18 v 5.033 H 69.65 c 5.497,0 9.954,-4.457 9.954,-9.954 V 69.131 h 5.758 c 6.727,0 12.181,-5.453 12.181,-12.181 V 56.442 C 97.542,49.716 92.088,44.263 85.361,44.263 Z"
           id="path3767"
           inkscape:connector-curvature="0" /></g></g></g><g
     inkscape:groupmode="layer"
     id="layer2"
     inkscape:label="bkgd"
     style="filter:url(#filter3795)"
     transform="translate(49.228891,50.886256)" /><g
     inkscape:groupmode="layer"
     id="layer1"
     inkscape:label="puzzle piece"
     transform="translate(49.228891,50.886256)" /></svg>